<?xml version="1.0" standalone="no"?>
<!DOCTYPE svg PUBLIC "-//W3C//DTD SVG 20010904//EN"
 "http://www.w3.org/TR/2001/REC-SVG-20010904/DTD/svg10.dtd">
<svg version="1.0" xmlns="http://www.w3.org/2000/svg"
 width="500.000000pt" height="500.000000pt" viewBox="0 0 500.000000 500.000000"
 preserveAspectRatio="xMidYMid meet">

<g transform="translate(0.000000,500.000000) scale(0.100000,-0.100000)"
fill="#000000" stroke="none">
<path d="M4520 4845 c-69 -18 -242 -64 -385 -100 -587 -152 -995 -287 -1325
-437 -110 -51 -113 -58 -41 -102 136 -83 336 -155 555 -201 67 -14 127 -28
135 -30 8 -3 -39 -45 -115 -101 -409 -306 -686 -563 -961 -891 -55 -65 -126
-155 -158 -200 -33 -46 -63 -83 -67 -83 -5 0 -31 22 -58 48 -44 42 -50 53 -50
89 0 28 8 52 29 81 31 41 38 46 104 57 51 8 109 66 147 147 40 85 95 303 110
438 47 403 -116 689 -430 756 -207 44 -469 -36 -626 -191 -83 -81 -107 -124
-134 -237 -45 -188 -34 -372 35 -587 30 -92 35 -122 35 -202 0 -147 -31 -243
-106 -327 -36 -40 -46 -45 -126 -63 -120 -26 -262 -72 -390 -126 -182 -76
-203 -117 -202 -403 1 -221 22 -339 149 -845 56 -225 110 -453 120 -505 26
-144 31 -348 11 -444 -28 -135 -21 -229 26 -339 l21 -47 1075 2 1076 3 19 50
c20 52 27 208 12 273 -10 46 33 88 108 108 93 24 166 63 232 126 142 132 188
356 126 601 -38 147 -126 286 -200 317 -31 12 -52 52 -65 120 -15 76 -78 298
-101 355 -13 33 -31 88 -39 123 -9 35 -27 92 -41 126 -14 34 -25 69 -25 77 0
29 137 286 212 399 42 63 116 165 165 225 112 141 380 414 552 563 127 111
134 115 148 97 26 -36 64 -117 155 -330 96 -226 134 -299 149 -290 16 11 35
56 89 210 176 510 270 1040 270 1519 0 130 -10 180 -40 196 -27 14 -41 12
-180 -25z m146 -51 c8 -31 -3 -502 -12 -552 -7 -35 -28 -52 -45 -35 -14 14
-23 581 -8 599 20 24 58 17 65 -12z m-734 -219 c12 -40 -1 -606 -14 -622 -6
-7 -19 -13 -29 -13 -42 0 -44 11 -44 332 0 329 1 339 53 335 19 -2 28 -10 34
-32z m620 -330 c12 -41 -1 -606 -14 -622 -14 -17 -43 -16 -60 0 -20 20 -19
617 1 641 23 27 63 17 73 -19z m-760 -220 c12 -41 -1 -606 -14 -622 -14 -17
-43 -16 -60 0 -20 20 -19 617 1 641 23 27 63 17 73 -19z m-428 -371 c12 -12
16 -38 16 -115 0 -96 -1 -100 -25 -111 -19 -8 -31 -8 -50 0 -24 11 -25 15 -25
111 0 105 10 131 50 131 10 0 26 -7 34 -16z m1077 -51 c10 -11 15 -58 17 -169
l4 -154 -26 -11 c-20 -9 -32 -9 -52 0 l-25 11 3 156 c3 140 5 157 22 170 26
18 40 18 57 -3z m-1200 -150 c10 -11 15 -58 17 -169 l4 -154 -26 -11 c-20 -9
-32 -9 -52 0 l-25 11 3 156 c3 140 5 157 22 170 26 18 40 18 57 -3z m-123
-335 c21 -27 24 -67 17 -225 -7 -159 -8 -163 -30 -169 -13 -3 -33 0 -45 6 -21
11 -22 15 -18 189 2 132 7 182 17 194 16 20 45 22 59 5z m-394 -54 c12 -12 16
-38 16 -115 0 -96 -1 -100 -25 -111 -19 -8 -31 -8 -50 0 -24 11 -25 14 -25
116 0 89 3 107 18 115 25 15 48 13 66 -5z m-130 -180 c12 -12 16 -38 16 -115
0 -96 -1 -100 -25 -111 -19 -8 -31 -8 -50 0 -24 11 -25 14 -25 116 0 89 3 107
18 115 25 15 48 13 66 -5z m-139 -167 c15 -11 17 -23 13 -66 -3 -28 -8 -54
-11 -57 -3 -3 -22 -1 -41 6 -35 11 -36 14 -36 59 0 66 30 90 75 58z m-1278
-731 c16 -25 19 -36 10 -45 -16 -16 -31 -14 -45 9 -10 17 -23 20 -90 20 -47 0
-83 -5 -90 -12 -16 -16 -16 -210 0 -226 7 -7 43 -12 90 -12 67 0 80 3 90 20
15 23 31 26 46 7 9 -10 6 -21 -11 -45 l-22 -32 -105 0 -105 0 -22 33 c-20 29
-23 46 -23 142 0 96 3 113 23 142 l22 33 105 0 105 0 22 -34z m903 -21 c0 -52
1 -55 25 -55 20 0 25 -5 25 -25 0 -20 -5 -25 -25 -25 -25 0 -25 0 -25 -95 0
-95 0 -95 -25 -95 -25 0 -25 0 -25 95 0 95 0 95 -25 95 -20 0 -25 5 -25 25 0
20 5 25 25 25 24 0 25 3 25 55 0 52 1 55 25 55 24 0 25 -3 25 -55z m355 19
c20 -49 19 -70 -7 -106 l-21 -31 24 -43 c22 -42 23 -45 8 -86 l-16 -43 -126
-3 -127 -3 0 176 0 175 125 0 125 0 15 -36z m319 3 c24 -32 26 -42 26 -142 0
-100 -2 -110 -26 -142 l-25 -33 -125 0 -124 0 0 175 0 175 124 0 125 0 25 -33z
m-1360 -90 c10 -7 15 -19 11 -28 -5 -13 -20 -16 -63 -15 l-57 1 -3 -92 c-3
-91 -3 -93 -27 -93 l-25 0 0 119 0 119 73 1 c45 0 80 -4 91 -12z m106 -49 c1
-55 4 -67 30 -98 l30 -35 30 35 c26 31 29 43 30 98 0 59 1 62 25 62 24 0 25
-2 25 -68 l0 -69 -76 -96 c-41 -54 -79 -97 -83 -97 -5 0 -14 7 -21 15 -9 11
-7 21 14 47 l25 34 -39 44 c-38 43 -39 48 -40 118 0 70 1 72 25 72 24 0 25 -3
25 -62z m427 40 c20 -19 23 -31 23 -98 0 -68 -3 -79 -24 -99 -21 -20 -33 -22
-95 -19 l-71 3 0 -57 c0 -55 -1 -58 -25 -58 l-25 0 0 174 0 174 97 1 c86 1 99
-1 120 -21z"/>
<path d="M2220 1920 l0 -50 73 0 c70 0 73 1 90 30 11 18 16 39 12 50 -6 18
-15 20 -91 20 l-84 0 0 -50z"/>
<path d="M2220 1770 l0 -50 84 0 c76 0 85 2 91 20 4 13 -2 31 -15 50 -20 28
-25 30 -91 30 l-69 0 0 -50z"/>
<path d="M2530 1845 l0 -125 90 0 c108 0 110 2 110 125 0 123 -2 125 -110 125
l-90 0 0 -125z"/>
<path d="M1771 1846 c-7 -8 -11 -36 -9 -68 l3 -53 65 0 65 0 0 65 0 65 -56 3
c-40 2 -59 -1 -68 -12z"/>
</g>
</svg>
